<svg width="56" height="56" viewBox="0 0 56 56" fill="none" xmlns="http://www.w3.org/2000/svg">
<rect width="56" height="56" rx="28" fill="#CCF4D5"/>
<path fill-rule="evenodd" clip-rule="evenodd" d="M21.8011 18.2378C21.7982 17.5248 22.3738 16.9491 23.0868 16.9521L37.6929 17.0119C38.4059 17.0149 38.9863 17.5952 38.9892 18.3082L39.049 32.9143C39.052 33.6273 38.4763 34.2029 37.7633 34.2C37.0503 34.1971 36.47 33.6167 36.467 32.9037L36.4199 21.4144L19.2199 38.6145C18.7178 39.1166 17.9003 39.1132 17.3941 38.607C16.8879 38.1008 16.8845 37.2833 17.3866 36.7812L34.5867 19.5812L23.0974 19.5341C22.3844 19.5312 21.804 18.9508 21.8011 18.2378Z" fill="#00533B"/>
</svg>
