<svg width="372" height="93" viewBox="0 0 372 93" fill="none" xmlns="http://www.w3.org/2000/svg">
<path d="M347 0C360.807 0 372 11.1929 372 25C372 38.8071 360.807 50 347 50C343.388 50 339.955 49.2334 336.855 47.8544C334.627 46.8635 331 49.0617 331 51.5C331 70.0015 316.002 85 297.5 85H33.5C14.9985 85 0 70.0015 0 51.5C0 32.9985 14.9985 18 33.5 18H297.5C305.896 18 313.571 21.0893 319.449 26.1927C320.346 26.971 322 26.1871 322 25C322 11.1929 333.193 1.77686e-07 347 0Z" fill="white"/>
<path d="M107.596 57.144C106.636 57.144 105.748 56.988 104.932 56.676C104.128 56.352 103.426 55.902 102.826 55.326C102.238 54.738 101.776 54.054 101.44 53.274C101.104 52.494 100.936 51.636 100.936 50.7C100.936 49.764 101.104 48.906 101.44 48.126C101.776 47.346 102.244 46.668 102.844 46.092C103.444 45.504 104.146 45.054 104.95 44.742C105.766 44.418 106.654 44.256 107.614 44.256C108.586 44.256 109.48 44.424 110.296 44.76C111.124 45.084 111.826 45.57 112.402 46.218L111.232 47.352C110.752 46.848 110.212 46.476 109.612 46.236C109.012 45.984 108.37 45.858 107.686 45.858C106.978 45.858 106.318 45.978 105.706 46.218C105.106 46.458 104.584 46.794 104.14 47.226C103.696 47.658 103.348 48.174 103.096 48.774C102.856 49.362 102.736 50.004 102.736 50.7C102.736 51.396 102.856 52.044 103.096 52.644C103.348 53.232 103.696 53.742 104.14 54.174C104.584 54.606 105.106 54.942 105.706 55.182C106.318 55.422 106.978 55.542 107.686 55.542C108.37 55.542 109.012 55.422 109.612 55.182C110.212 54.93 110.752 54.546 111.232 54.03L112.402 55.164C111.826 55.812 111.124 56.304 110.296 56.64C109.48 56.976 108.58 57.144 107.596 57.144ZM121.506 57L117.816 52.356L119.238 51.492L123.54 57H121.506ZM114.594 57V47.46H116.322V57H114.594ZM115.8 52.968V51.492H118.95V52.968H115.8ZM119.382 52.428L117.78 52.212L121.434 47.46H123.288L119.382 52.428ZM131.026 57V54.984L130.936 54.606V51.168C130.936 50.436 130.72 49.872 130.288 49.476C129.868 49.068 129.232 48.864 128.38 48.864C127.816 48.864 127.264 48.96 126.724 49.152C126.184 49.332 125.728 49.578 125.356 49.89L124.636 48.594C125.128 48.198 125.716 47.898 126.4 47.694C127.096 47.478 127.822 47.37 128.578 47.37C129.886 47.37 130.894 47.688 131.602 48.324C132.31 48.96 132.664 49.932 132.664 51.24V57H131.026ZM127.894 57.108C127.186 57.108 126.562 56.988 126.022 56.748C125.494 56.508 125.086 56.178 124.798 55.758C124.51 55.326 124.366 54.84 124.366 54.3C124.366 53.784 124.486 53.316 124.726 52.896C124.978 52.476 125.38 52.14 125.932 51.888C126.496 51.636 127.252 51.51 128.2 51.51H131.224V52.752H128.272C127.408 52.752 126.826 52.896 126.526 53.184C126.226 53.472 126.076 53.82 126.076 54.228C126.076 54.696 126.262 55.074 126.634 55.362C127.006 55.638 127.522 55.776 128.182 55.776C128.83 55.776 129.394 55.632 129.874 55.344C130.366 55.056 130.72 54.636 130.936 54.084L131.278 55.272C131.05 55.836 130.648 56.286 130.072 56.622C129.496 56.946 128.77 57.108 127.894 57.108ZM141.788 53.094C141.284 53.334 140.762 53.526 140.222 53.67C139.694 53.802 139.148 53.868 138.584 53.868C137.432 53.868 136.52 53.598 135.848 53.058C135.188 52.518 134.858 51.684 134.858 50.556V47.46H136.586V50.448C136.586 51.132 136.796 51.636 137.216 51.96C137.648 52.284 138.224 52.446 138.944 52.446C139.4 52.446 139.868 52.386 140.348 52.266C140.84 52.146 141.32 51.978 141.788 51.762V53.094ZM141.662 57V47.46H143.39V57H141.662ZM152.594 57V54.984L152.504 54.606V51.168C152.504 50.436 152.288 49.872 151.856 49.476C151.436 49.068 150.8 48.864 149.948 48.864C149.384 48.864 148.832 48.96 148.292 49.152C147.752 49.332 147.296 49.578 146.924 49.89L146.204 48.594C146.696 48.198 147.284 47.898 147.968 47.694C148.664 47.478 149.39 47.37 150.146 47.37C151.454 47.37 152.462 47.688 153.17 48.324C153.878 48.96 154.232 49.932 154.232 51.24V57H152.594ZM149.462 57.108C148.754 57.108 148.13 56.988 147.59 56.748C147.062 56.508 146.654 56.178 146.366 55.758C146.078 55.326 145.934 54.84 145.934 54.3C145.934 53.784 146.054 53.316 146.294 52.896C146.546 52.476 146.948 52.14 147.5 51.888C148.064 51.636 148.82 51.51 149.768 51.51H152.792V52.752H149.84C148.976 52.752 148.394 52.896 148.094 53.184C147.794 53.472 147.644 53.82 147.644 54.228C147.644 54.696 147.83 55.074 148.202 55.362C148.574 55.638 149.09 55.776 149.75 55.776C150.398 55.776 150.962 55.632 151.442 55.344C151.934 55.056 152.288 54.636 152.504 54.084L152.846 55.272C152.618 55.836 152.216 56.286 151.64 56.622C151.064 56.946 150.338 57.108 149.462 57.108ZM159.234 57V48.522L159.666 48.972H155.742V47.46H164.454V48.972H160.548L160.962 48.522V57H159.234ZM170.631 50.7C171.843 50.712 172.767 50.988 173.403 51.528C174.039 52.068 174.357 52.83 174.357 53.814C174.357 54.846 174.009 55.644 173.313 56.208C172.617 56.76 171.633 57.03 170.361 57.018L166.221 57V47.46H167.949V50.682L170.631 50.7ZM170.217 55.704C170.997 55.716 171.585 55.56 171.981 55.236C172.389 54.912 172.593 54.432 172.593 53.796C172.593 53.172 172.395 52.716 171.999 52.428C171.603 52.14 171.009 51.99 170.217 51.978L167.949 51.942V55.686L170.217 55.704ZM185.494 57.108C184.534 57.108 183.682 56.898 182.938 56.478C182.194 56.058 181.606 55.482 181.174 54.75C180.742 54.006 180.526 53.166 180.526 52.23C180.526 51.282 180.742 50.442 181.174 49.71C181.606 48.978 182.194 48.408 182.938 48C183.682 47.58 184.534 47.37 185.494 47.37C186.442 47.37 187.288 47.58 188.032 48C188.788 48.408 189.376 48.978 189.796 49.71C190.228 50.43 190.444 51.27 190.444 52.23C190.444 53.178 190.228 54.018 189.796 54.75C189.376 55.482 188.788 56.058 188.032 56.478C187.288 56.898 186.442 57.108 185.494 57.108ZM185.494 55.596C186.106 55.596 186.652 55.458 187.132 55.182C187.624 54.906 188.008 54.516 188.284 54.012C188.56 53.496 188.698 52.902 188.698 52.23C188.698 51.546 188.56 50.958 188.284 50.466C188.008 49.962 187.624 49.572 187.132 49.296C186.652 49.02 186.106 48.882 185.494 48.882C184.882 48.882 184.336 49.02 183.856 49.296C183.376 49.572 182.992 49.962 182.704 50.466C182.416 50.958 182.272 51.546 182.272 52.23C182.272 52.902 182.416 53.496 182.704 54.012C182.992 54.516 183.376 54.906 183.856 55.182C184.336 55.458 184.882 55.596 185.494 55.596ZM194.478 57V48.522L194.91 48.972H190.986V47.46H199.698V48.972H195.792L196.206 48.522V57H194.478ZM207.477 53.094C206.973 53.334 206.451 53.526 205.911 53.67C205.383 53.802 204.837 53.868 204.273 53.868C203.121 53.868 202.209 53.598 201.537 53.058C200.877 52.518 200.547 51.684 200.547 50.556V47.46H202.275V50.448C202.275 51.132 202.485 51.636 202.905 51.96C203.337 52.284 203.913 52.446 204.633 52.446C205.089 52.446 205.557 52.386 206.037 52.266C206.529 52.146 207.009 51.978 207.477 51.762V53.094ZM207.351 57V47.46H209.079V57H207.351ZM216.682 57.108C215.662 57.108 214.762 56.898 213.982 56.478C213.214 56.058 212.614 55.482 212.182 54.75C211.762 54.018 211.552 53.178 211.552 52.23C211.552 51.282 211.756 50.442 212.164 49.71C212.584 48.978 213.154 48.408 213.874 48C214.606 47.58 215.428 47.37 216.34 47.37C217.264 47.37 218.08 47.574 218.788 47.982C219.496 48.39 220.048 48.966 220.444 49.71C220.852 50.442 221.056 51.3 221.056 52.284C221.056 52.356 221.05 52.44 221.038 52.536C221.038 52.632 221.032 52.722 221.02 52.806H212.902V51.564H220.12L219.418 51.996C219.43 51.384 219.304 50.838 219.04 50.358C218.776 49.878 218.41 49.506 217.942 49.242C217.486 48.966 216.952 48.828 216.34 48.828C215.74 48.828 215.206 48.966 214.738 49.242C214.27 49.506 213.904 49.884 213.64 50.376C213.376 50.856 213.244 51.408 213.244 52.032V52.32C213.244 52.956 213.388 53.526 213.676 54.03C213.976 54.522 214.39 54.906 214.918 55.182C215.446 55.458 216.052 55.596 216.736 55.596C217.3 55.596 217.81 55.5 218.266 55.308C218.734 55.116 219.142 54.828 219.49 54.444L220.444 55.56C220.012 56.064 219.472 56.448 218.824 56.712C218.188 56.976 217.474 57.108 216.682 57.108ZM217.996 45.768C217.744 45.768 217.528 45.684 217.348 45.516C217.168 45.336 217.078 45.114 217.078 44.85C217.078 44.574 217.168 44.352 217.348 44.184C217.528 44.004 217.744 43.914 217.996 43.914C218.248 43.914 218.464 44.004 218.644 44.184C218.824 44.352 218.914 44.574 218.914 44.85C218.914 45.114 218.824 45.336 218.644 45.516C218.464 45.684 218.248 45.768 217.996 45.768ZM214.648 45.768C214.396 45.768 214.18 45.684 214 45.516C213.82 45.336 213.73 45.114 213.73 44.85C213.73 44.574 213.82 44.352 214 44.184C214.18 44.004 214.396 43.914 214.648 43.914C214.9 43.914 215.116 44.004 215.296 44.184C215.476 44.352 215.566 44.574 215.566 44.85C215.566 45.114 215.476 45.336 215.296 45.516C215.116 45.684 214.9 45.768 214.648 45.768ZM225.222 57V48.522L225.654 48.972H221.73V47.46H230.442V48.972H226.536L226.95 48.522V57H225.222Z" fill="#00513A"/>
<path d="M335.208 33.0326C334.674 33.4697 334.595 34.2572 335.032 34.7915C335.47 35.3259 336.257 35.4046 336.791 34.9674L336 34L335.208 33.0326ZM359.244 16.1244C359.312 15.4375 358.811 14.8249 358.124 14.7562L346.93 13.6368C346.243 13.5681 345.631 14.0693 345.562 14.7562C345.493 15.4431 345.995 16.0557 346.681 16.1244L356.632 17.1194L355.637 27.0698C355.568 27.7567 356.069 28.3693 356.756 28.438C357.443 28.5067 358.056 28.0055 358.124 27.3185L359.244 16.1244ZM336 34L336.791 34.9674L358.792 16.9674L358 16L357.208 15.0326L335.208 33.0326L336 34Z" fill="#00513A"/>
</svg>
