<svg width="344" height="42" viewBox="0 0 344 42" fill="none" xmlns="http://www.w3.org/2000/svg">
<g clip-path="url(#clip0_528_873)">
<path d="M21 32.0526C27.1158 32.0526 32.0526 27.1158 32.0526 21C32.0526 14.8842 27.1158 9.94736 21 9.94736C19.0596 9.94736 17.2175 10.4386 15.6456 11.3228L18.028 15.6211C18.9372 15.1173 19.9605 14.8551 21 14.8597C24.3895 14.8597 27.1403 17.6105 27.1403 21C27.1403 24.3895 24.3895 27.1404 21 27.1404C17.6105 27.1404 14.8596 24.3895 14.8596 21C14.8581 19.8827 15.164 18.7866 15.7438 17.8316L11.5193 15.3018C10.5122 16.9719 9.94738 18.9123 9.94738 21C9.94738 27.1158 14.8842 32.0526 21 32.0526ZM21 42C32.6175 42 42 32.6176 42 21C42 9.38247 32.6175 1.76015e-05 21 1.76015e-05C17.4342 -0.0046013 13.926 0.899904 10.807 2.62809L13.214 6.92633C15.4982 5.62457 18.2 4.9123 21 4.9123C29.9158 4.9123 37.0877 12.0842 37.0877 21C37.0877 29.9158 29.9158 37.0878 21 37.0878C12.0842 37.0878 4.91228 29.9158 4.91228 21C4.91563 18.0747 5.71363 15.2053 7.22105 12.6983L2.99648 10.193C1.0807 13.3369 0 17.0457 0 21C0 32.6176 9.38244 42 21 42Z" fill="#00513A"/>
<path d="M321.891 32.8308V11.1692H327.824C334.337 11.1692 339.156 15.8707 339.156 22C339.156 28.1292 334.337 32.8308 327.824 32.8308H321.891ZM317.048 37.3846H327.824C337.002 37.3846 344 30.6399 344 22C344 13.3354 337.002 6.61539 327.824 6.61539H317.048V37.3846ZM295.253 33.4461C289.223 33.4461 284.356 28.3261 284.356 22C284.356 15.6739 289.223 10.5538 295.253 10.5538C301.283 10.5538 306.15 15.6739 306.15 22C306.15 28.3261 301.283 33.4461 295.253 33.4461ZM295.253 38C303.947 38 310.994 30.8369 310.994 22C310.994 13.1385 303.947 6 295.253 6C286.56 6 279.513 13.163 279.513 22C279.513 30.8369 286.56 38 295.253 38ZM258.929 33.4461C252.9 33.4461 248.032 28.3261 248.032 22C248.032 15.6739 252.9 10.5538 258.929 10.5538C264.959 10.5538 269.827 15.6739 269.827 22C269.827 28.3261 264.959 33.4461 258.929 33.4461ZM258.929 38C267.623 38 274.67 30.8369 274.67 22C274.67 13.1385 267.623 6 258.929 6C250.236 6 243.189 13.163 243.189 22C243.189 30.8369 250.236 38 258.929 38ZM167.026 32.8308V11.1692H172.958C179.472 11.1692 184.291 15.8707 184.291 22C184.291 28.1292 179.472 32.8308 172.958 32.8308H167.026ZM162.182 37.3846H172.958C182.136 37.3846 189.135 30.6399 189.135 22C189.135 13.3354 182.136 6.61539 172.958 6.61539H162.182V37.3846ZM67.7403 24.2646H78.4195C77.4266 29.5076 73.0193 33.4461 67.7403 33.4461C61.7106 33.4461 56.8431 28.3261 56.8431 22C56.8431 15.6739 61.7106 10.5538 67.7403 10.5538C71.0337 10.5538 73.9638 12.08 75.9737 14.4677L79.4123 11.3907C77.015 8.24 72.8499 6 67.7403 6C59.0468 6 52 13.163 52 22C52 30.8369 59.0468 38 67.7403 38C76.4338 38 83.4806 30.8369 83.4806 22C83.4806 21.1631 83.408 20.3754 83.2868 19.7107H67.7403V24.2646ZM209.989 37.3846H214.324L221.225 15.1323L227.909 37.3846H232.244L240.719 6.61539H236.191L230.234 28.5723L223.623 6.61539H219.361L212.556 28.6216L206.648 6.61539H201.659L209.989 37.3846ZM140.388 33.4461C134.358 33.4461 129.49 28.3261 129.49 22C129.49 15.6739 134.358 10.5538 140.388 10.5538C146.417 10.5538 151.285 15.6739 151.285 22C151.285 28.3261 146.417 33.4461 140.388 33.4461ZM140.388 38C149.082 38 156.128 30.8369 156.128 22C156.128 13.1385 149.082 6 140.388 6C131.694 6 124.647 13.163 124.647 22C124.647 30.8369 131.694 38 140.388 38ZM104.064 33.4461C98.0346 33.4461 93.1669 28.3261 93.1669 22C93.1669 15.6739 98.0346 10.5538 104.064 10.5538C110.094 10.5538 114.961 15.6739 114.961 22C114.961 28.3261 110.094 33.4461 104.064 33.4461ZM104.064 38C112.758 38 119.805 30.8369 119.805 22C119.805 13.1385 112.758 6 104.064 6C95.3702 6 88.3237 13.163 88.3237 22C88.3237 30.8369 95.3702 38 104.064 38Z" fill="white"/>
</g>
<defs>
<clipPath id="clip0_528_873">
<rect width="344" height="42" fill="white"/>
</clipPath>
</defs>
</svg>
