<svg xmlns="http://www.w3.org/2000/svg" width="66" height="66" viewBox="0 0 66 66" fill="none">
<path d="M33 49.3157C42.0281 49.3157 49.3157 42.0281 49.3157 33C49.3157 23.9719 42.0281 16.6842 33 16.6842C30.1356 16.6842 27.4163 17.4094 25.0959 18.7146L28.6128 25.0597C29.9549 24.316 31.4655 23.929 33 23.9357C38.0035 23.9357 42.0643 27.9965 42.0643 33C42.0643 38.0035 38.0035 42.0644 33 42.0644C27.9965 42.0644 23.9356 38.0035 23.9356 33C23.9334 31.3507 24.385 29.7326 25.2408 28.3228L19.0047 24.5884C17.518 27.0538 16.6842 29.9182 16.6842 33C16.6842 42.0281 23.9719 49.3157 33 49.3157ZM33 64C50.1496 64 64 50.1498 64 33C64 15.8503 50.1496 2.00003 33 2.00003C27.7362 1.99321 22.5574 3.32843 17.9532 5.87956L21.5064 12.2246C24.8783 10.3029 28.8667 9.25149 33 9.25149C46.1614 9.25149 56.7485 19.8386 56.7485 33C56.7485 46.1614 46.1614 56.7487 33 56.7487C19.8386 56.7487 9.25146 46.1614 9.25146 33C9.25641 28.6817 10.4344 24.4459 12.6596 20.7451L6.42338 17.0468C3.59532 21.6878 2 27.1627 2 33C2 50.1498 15.8503 64 33 64Z" fill="#00513A"/>
</svg>